HIERARCHY
ROOT Hips
{
  OFFSET 5.72205e-005 65.662 3.42586
  CHANNELS 6 Xposition Yposition Zposition Zrotation Xrotation Yrotation
  JOINT Chest
  {
    OFFSET 0 8.7983 -4.7612
    CHANNELS 6 Xposition Yposition Zposition Zrotation Xrotation Yrotation
    JOINT Chest2
    {
      OFFSET 0 8.0291 0.4195
      CHANNELS 6 Xposition Yposition Zposition Zrotation Xrotation Yrotation
      JOINT Chest3
      {
        OFFSET 0 9.9351 -2.2114
        CHANNELS 6 Xposition Yposition Zposition Zrotation Xrotation Yrotation
        JOINT Neck
        {
          OFFSET 0 22.3885 -0.4656
          CHANNELS 6 Xposition Yposition Zposition Zrotation Xrotation Yrotation
          JOINT Head
          {
            OFFSET -0.0001 12.643 3.4389
            CHANNELS 6 Xposition Yposition Zposition Zrotation Xrotation Yrotation
            End Site
            {
              OFFSET 0.0001 17.6655 0.5274
            }
          }
        }
        JOINT LeftCollar
        {
          OFFSET 2.2603 21.606 7.4023
          CHANNELS 6 Xposition Yposition Zposition Zrotation Xrotation Yrotation
          JOINT LeftShoulder
          {
            OFFSET 13.5163 -1.1332 -5.0146
            CHANNELS 6 Xposition Yposition Zposition Zrotation Xrotation Yrotation
            JOINT LeftElbow
            {
              OFFSET -0.0995 -28.05 -0.2431
              CHANNELS 6 Xposition Yposition Zposition Zrotation Xrotation Yrotation
              JOINT LeftWrist
              {
                OFFSET 0.0679 -23.3996 -0.1402
                CHANNELS 6 Xposition Yposition Zposition Zrotation Xrotation Yrotation
                JOINT LeftFinger1
                {
                  OFFSET 0.7932 -9.069 2.5189
                  CHANNELS 6 Xposition Yposition Zposition Zrotation Xrotation Yrotation
                  JOINT LeftFinger11
                  {
                    OFFSET -0.8272 -3.3923 0.5977
                    CHANNELS 6 Xposition Yposition Zposition Zrotation Xrotation Yrotation
                    JOINT LeftFinger12
                    {
                      OFFSET -0.5649 -2.3158 0.4082
                      CHANNELS 6 Xposition Yposition Zposition Zrotation Xrotation Yrotation
                      End Site
                      {
                        OFFSET -0.4919 -1.6479 0.2673
                      }
                    }
                  }
                }
                JOINT LeftFinger2
                {
                  OFFSET 0.9159 -9.2044 0.2193
                  CHANNELS 6 Xposition Yposition Zposition Zrotation Xrotation Yrotation
                  JOINT LeftFinger21
                  {
                    OFFSET 0.0117 -4.1944 -0.0248
                    CHANNELS 6 Xposition Yposition Zposition Zrotation Xrotation Yrotation
                    JOINT LeftFinger22
                    {
                      OFFSET 0.0071 -2.3249 -0.0142
                      CHANNELS 6 Xposition Yposition Zposition Zrotation Xrotation Yrotation
                      End Site
                      {
                        OFFSET -0.1475 -2.0882 0.0028
                      }
                    }
                  }
                }
                JOINT LeftFinger3
                {
                  OFFSET 0.6113 -8.7231 -2.0637
                  CHANNELS 6 Xposition Yposition Zposition Zrotation Xrotation Yrotation
                  JOINT LeftFinger31
                  {
                    OFFSET -0.1927 -3.8059 -0.2383
                    CHANNELS 6 Xposition Yposition Zposition Zrotation Xrotation Yrotation
                    JOINT LeftFinger32
                    {
                      OFFSET -0.1091 -2.1688 -0.1362
                      CHANNELS 6 Xposition Yposition Zposition Zrotation Xrotation Yrotation
                      End Site
                      {
                        OFFSET -0.2358 -1.9176 -0.0906
                      }
                    }
                  }
                }
                JOINT LeftFinger4
                {
                  OFFSET -0.6151 -8.0947 -3.5641
                  CHANNELS 6 Xposition Yposition Zposition Zrotation Xrotation Yrotation
                  JOINT LeftFinger41
                  {
                    OFFSET -0.4882 -2.341 -0.6462
                    CHANNELS 6 Xposition Yposition Zposition Zrotation Xrotation Yrotation
                    JOINT LeftFinger42
                    {
                      OFFSET -0.3575 -1.7167 -0.4742
                      CHANNELS 6 Xposition Yposition Zposition Zrotation Xrotation Yrotation
                      End Site
                      {
                        OFFSET -0.4187 -1.5237 -0.3496
                      }
                    }
                  }
                }
                JOINT LeftFinger0
                {
                  OFFSET -1.42 -1.8761 1.4223
                  CHANNELS 6 Xposition Yposition Zposition Zrotation Xrotation Yrotation
                  JOINT LeftFinger01
                  {
                    OFFSET -1.1471 -3.4929 2.6334
                    CHANNELS 6 Xposition Yposition Zposition Zrotation Xrotation Yrotation
                    JOINT LeftFinger02
                    {
                      OFFSET -0.823 -2.3 1.6571
                      CHANNELS 6 Xposition Yposition Zposition Zrotation Xrotation Yrotation
                      End Site
                      {
                        OFFSET -0.5822 -1.6914 1.1582
                      }
                    }
                  }
                }
              }
            }
          }
        }
        JOINT RightCollar
        {
          OFFSET -2.2603 21.606 7.4023
          CHANNELS 6 Xposition Yposition Zposition Zrotation Xrotation Yrotation
          JOINT RightShoulder
          {
            OFFSET -13.5187 -1.1334 -5.0155
            CHANNELS 6 Xposition Yposition Zposition Zrotation Xrotation Yrotation
            JOINT RightElbow
            {
              OFFSET 0.0994 -28.0499 -0.2431
              CHANNELS 6 Xposition Yposition Zposition Zrotation Xrotation Yrotation
              JOINT RightWrist
              {
                OFFSET -0.0679 -23.3996 -0.1402
                CHANNELS 6 Xposition Yposition Zposition Zrotation Xrotation Yrotation
                JOINT RightFinger1
                {
                  OFFSET -0.7932 -9.0691 2.5189
                  CHANNELS 6 Xposition Yposition Zposition Zrotation Xrotation Yrotation
                  JOINT RightFinger11
                  {
                    OFFSET 0.8272 -3.3923 0.5977
                    CHANNELS 6 Xposition Yposition Zposition Zrotation Xrotation Yrotation
                    JOINT RightFinger12
                    {
                      OFFSET 0.565 -2.3158 0.4082
                      CHANNELS 6 Xposition Yposition Zposition Zrotation Xrotation Yrotation
                      End Site
                      {
                        OFFSET 0.4919 -1.6479 0.2673
                      }
                    }
                  }
                }
                JOINT RightFinger2
                {
                  OFFSET -0.916 -9.2044 0.2193
                  CHANNELS 6 Xposition Yposition Zposition Zrotation Xrotation Yrotation
                  JOINT RightFinger21
                  {
                    OFFSET -0.0117 -4.1944 -0.0248
                    CHANNELS 6 Xposition Yposition Zposition Zrotation Xrotation Yrotation
                    JOINT RightFinger22
                    {
                      OFFSET -0.0071 -2.3249 -0.0142
                      CHANNELS 6 Xposition Yposition Zposition Zrotation Xrotation Yrotation
                      End Site
                      {
                        OFFSET 0.1475 -2.0882 0.0028
                      }
                    }
                  }
                }
                JOINT RightFinger3
                {
                  OFFSET -0.6113 -8.7231 -2.0637
                  CHANNELS 6 Xposition Yposition Zposition Zrotation Xrotation Yrotation
                  JOINT RightFinger31
                  {
                    OFFSET 0.1927 -3.8059 -0.2383
                    CHANNELS 6 Xposition Yposition Zposition Zrotation Xrotation Yrotation
                    JOINT RightFinger32
                    {
                      OFFSET 0.1091 -2.1688 -0.1362
                      CHANNELS 6 Xposition Yposition Zposition Zrotation Xrotation Yrotation
                      End Site
                      {
                        OFFSET 0.2358 -1.9176 -0.0906
                      }
                    }
                  }
                }
                JOINT RightFinger4
                {
                  OFFSET 0.6151 -8.0947 -3.564
                  CHANNELS 6 Xposition Yposition Zposition Zrotation Xrotation Yrotation
                  JOINT RightFinger41
                  {
                    OFFSET 0.4882 -2.341 -0.6462
                    CHANNELS 6 Xposition Yposition Zposition Zrotation Xrotation Yrotation
                    JOINT RightFinger42
                    {
                      OFFSET 0.3574 -1.7166 -0.4742
                      CHANNELS 6 Xposition Yposition Zposition Zrotation Xrotation Yrotation
                      End Site
                      {
                        OFFSET 0.4187 -1.5237 -0.3496
                      }
                    }
                  }
                }
                JOINT RightFinger0
                {
                  OFFSET 1.4199 -1.8761 1.4221
                  CHANNELS 6 Xposition Yposition Zposition Zrotation Xrotation Yrotation
                  JOINT RightFinger01
                  {
                    OFFSET 1.1472 -3.4929 2.6336
                    CHANNELS 6 Xposition Yposition Zposition Zrotation Xrotation Yrotation
                    JOINT RightFinger02
                    {
                      OFFSET 0.8229 -2.3 1.6571
                      CHANNELS 6 Xposition Yposition Zposition Zrotation Xrotation Yrotation
                      End Site
                      {
                        OFFSET 0.5822 -1.6914 1.1582
                      }
                    }
                  }
                }
              }
            }
          }
        }
      }
    }
  }
  JOINT RightHip
  {
    OFFSET -9.412 3.9771 -0.7758
    CHANNELS 6 Xposition Yposition Zposition Zrotation Xrotation Yrotation
    JOINT RightKnee
    {
      OFFSET -0.7531 -40.938 0
      CHANNELS 6 Xposition Yposition Zposition Zrotation Xrotation Yrotation
      JOINT RightAnkle
      {
        OFFSET 0 -40.1986 0
        CHANNELS 6 Xposition Yposition Zposition Zrotation Xrotation Yrotation
        JOINT RightToe
        {
          OFFSET 0 -4.4182 9.239
          CHANNELS 6 Xposition Yposition Zposition Zrotation Xrotation Yrotation
          End Site
          {
            OFFSET 0 0 6.1981
          }
        }
      }
    }
  }
  JOINT LeftHip
  {
    OFFSET 9.4119 3.9773 -0.7758
    CHANNELS 6 Xposition Yposition Zposition Zrotation Xrotation Yrotation
    JOINT LeftKnee
    {
      OFFSET 0.7532 -40.9383 0
      CHANNELS 6 Xposition Yposition Zposition Zrotation Xrotation Yrotation
      JOINT LeftAnkle
      {
        OFFSET 0 -40.1986 0
        CHANNELS 6 Xposition Yposition Zposition Zrotation Xrotation Yrotation
        JOINT LeftToe
        {
          OFFSET 0 -4.4182 9.239
          CHANNELS 6 Xposition Yposition Zposition Zrotation Xrotation Yrotation
          End Site
          {
            OFFSET 0 0 6.1981
          }
        }
      }
    }
  }
}
MOTION
Frames:	4
Frame Time:	0.0333333
0.0833602 76.5583 -29.9742 2.80106e-007 -69.0033 1.99867e-007 1.38778e-017 8.7983 -4.7612 -0.38089 16.0047 -0.00931099 0 8.0291 0.4195 -0.809639 32.0091 0.103981 0 9.9351 -2.2114 -0.809633 32.0089 0.103979 4.44089e-016 22.3885 -0.4656 3.37419e-005 -10.3242 5.05901e-006 -0.0001 12.643 3.4389 4.18457e-007 -9.3836 1.86705e-007 2.2603 21.606 7.4023 -9.77818 0.0242831 -11.1341 13.5163 -1.1332 -5.0146 90.3227 11.0264 -37.3604 -0.0995 -28.05 -0.2431 -1.44696 -7.86983 -0.354744 0.0679 -23.3996 -0.1402 -5.69814 2.05432 -4.66364 0.7932 -9.069 2.5189 6.74639e-006 -1.30158e-006 1.00116e-005 -0.8272 -3.3923 0.5977 6.21724e-006 4.86203e-006 1.00226e-005 -0.5649 -2.3158 0.4082 1.78906e-015 1.59028e-015 -0 0.9159 -9.2044 0.2193 6.74639e-006 -1.30158e-006 1.00116e-005 0.0117 -4.1944 -0.0248 -0.0128248 0.0023291 8.75818e-005 0.0071 -2.3249 -0.0142 2.6326e-006 -1.75229e-006 4.2083e-006 0.6113 -8.7231 -2.0637 6.74639e-006 -1.30158e-006 1.00116e-005 -0.1927 -3.8059 -0.2383 -0.0160525 0.00299224 0.000853216 -0.1091 -2.1688 -0.1362 -1.39149e-015 5.76476e-015 -1.27222e-014 -0.6151 -8.0947 -3.5641 6.74639e-006 -1.30158e-006 1.00116e-005 -0.4882 -2.341 -0.6462 -0.0124952 0.0031201 0.00281827 -0.3575 -1.7167 -0.4742 -1.09332e-014 -3.77691e-015 -9.54166e-015 -1.42 -1.8761 1.4223 6.74639e-006 -1.30158e-006 1.00116e-005 -1.1471 -3.4929 2.6334 6.21724e-006 4.86203e-006 1.00226e-005 -0.823 -2.3 1.6571 1.78906e-015 1.59028e-015 -0 -2.2603 21.606 7.4023 9.09938 0.205799 5.81576 -13.5187 -1.1334 -5.0155 -91.0292 5.97063 37.3182 0.0994 -28.0499 -0.2431 1.42038 -7.87376 0.246511 -0.0679 -23.3996 -0.1402 4.56124 1.96244 4.80293 -0.7932 -9.0691 2.5189 4.77083e-015 3.18055e-015 1.27222e-014 0.8272 -3.3923 0.5977 -8.82781e-031 3.18055e-015 1.59028e-014 0.565 -2.3158 0.4082 5.1684e-015 7.95139e-016 -0 -0.916 -9.2044 0.2193 4.77083e-015 3.18055e-015 1.27222e-014 -0.0117 -4.1944 -0.0248 0.0130312 0.00232277 -8.00355e-005 -0.0071 -2.3249 -0.0142 7.95139e-016 6.36111e-015 9.54166e-015 -0.6113 -8.7231 -2.0637 4.77083e-015 3.18055e-015 1.27222e-014 0.1927 -3.8059 -0.2383 0.0163176 0.00303297 -0.000872719 0.1091 -2.1688 -0.1362 -3.97569e-016 7.95139e-016 6.36111e-015 0.6151 -8.0947 -3.564 4.77083e-015 3.18055e-015 1.27222e-014 0.4882 -2.341 -0.6462 0.0146105 0.00368478 -0.00327381 0.3574 -1.7166 -0.4742 7.95139e-016 3.97569e-015 -3.18055e-015 1.4199 -1.8761 1.4221 4.77083e-015 3.18055e-015 1.27222e-014 1.1472 -3.4929 2.6336 -8.82781e-031 3.18055e-015 1.59028e-014 0.8229 -2.3 1.6571 5.1684e-015 7.95139e-016 -0 -9.412 3.9771 -0.7758 -124.944 -52.805 -131.982 -0.7531 -40.938 3.55271e-015 -129.788 70.718 127.974 7.10543e-015 -40.1986 -1.42109e-014 -2.07882 22.9168 -6.04422 7.10543e-015 -4.4182 9.239 -3.90443e-006 5.63513e-006 -6.0748e-006 9.4119 3.9773 -0.7758 121.04 -51.7192 127.499 0.7532 -40.9383 0 116.061 73.9137 -115.03 7.10543e-015 -40.1986 0 2.54336 24.6647 3.60148 -3.55271e-015 -4.4182 9.239 7.92833e-007 -6.82045e-006 8.6476e-006 
0.0776419 76.5568 -29.9727 -4.66083e-008 -69.0033 -8.4129e-008 0 8.7983 -4.7612 -0.380214 16.0712 -0.0108633 0 8.0291 0.4195 -0.808155 32.1423 0.101117 0 9.9351 -2.2114 -0.80815 32.1421 0.101116 0 22.3885 -0.4656 3.38417e-005 -9.6437 5.24856e-006 -0.0001 12.643 3.4389 -7.87174e-008 -8.76478 1.01444e-006 2.2603 21.606 7.4023 -9.65119 0.00994534 -11.2321 13.5163 -1.1332 -5.0146 90.3227 11.0264 -37.3604 -0.0995 -28.05 -0.2431 -1.44695 -7.86983 -0.354742 0.0679 -23.3996 -0.1402 -5.78485 2.0007 -4.33981 0.7932 -9.069 2.5189 1.02451e-006 1.08553e-006 4.63803e-006 -0.8272 -3.3923 0.5977 1.19271e-015 7.55382e-015 6.36111e-015 -0.5649 -2.3158 0.4082 -2.18663e-015 4.77083e-015 1.90833e-014 0.9159 -9.2044 0.2193 1.02451e-006 1.08553e-006 4.63803e-006 0.0117 -4.1944 -0.0248 -0.0127501 0.00230748 8.48353e-005 0.0071 -2.3249 -0.0142 4.37326e-015 3.77691e-015 6.36111e-015 0.6113 -8.7231 -2.0637 1.02451e-006 1.08553e-006 4.63803e-006 -0.1927 -3.8059 -0.2383 -0.0160873 0.00299505 0.000858375 -0.1091 -2.1688 -0.1362 -2.18663e-015 -3.77691e-015 -0 -0.6151 -8.0947 -3.5641 1.02451e-006 1.08553e-006 4.63803e-006 -0.4882 -2.341 -0.6462 -0.01259 0.00311206 0.0028285 -0.3575 -1.7167 -0.4742 -2.5842e-015 1.78906e-015 9.54166e-015 -1.42 -1.8761 1.4223 1.02451e-006 1.08553e-006 4.63803e-006 -1.1471 -3.4929 2.6334 1.19271e-015 7.55382e-015 6.36111e-015 -0.823 -2.3 1.6571 -2.18663e-015 4.77083e-015 1.90833e-014 -2.2603 21.606 7.4023 8.95881 0.190311 5.90302 -13.5187 -1.1334 -5.0155 -91.0292 5.97061 37.3181 0.0994 -28.0499 -0.2431 1.42036 -7.87374 0.246513 -0.0679 -23.3996 -0.1402 4.72822 1.9177 4.48131 -0.7932 -9.0691 2.5189 2.47089e-006 -4.2059e-007 -4.39984e-007 0.8272 -3.3923 0.5977 -4.59474e-006 3.93323e-006 -6.02901e-006 0.565 -2.3158 0.4082 3.97569e-016 2.61156e-006 -0 -0.916 -9.2044 0.2193 2.47089e-006 -4.2059e-007 -4.39984e-007 -0.0117 -4.1944 -0.0248 0.0129354 0.00231844 -9.03978e-005 -0.0071 -2.3249 -0.0142 3.34803e-006 -2.24534e-006 2.23107e-006 -0.6113 -8.7231 -2.0637 2.47089e-006 -4.2059e-007 -4.39984e-007 0.1927 -3.8059 -0.2383 0.0163193 0.00304296 -0.000877711 0.1091 -2.1688 -0.1362 -7.95139e-016 -1.59028e-015 -6.36111e-015 0.6151 -8.0947 -3.564 2.47089e-006 -4.2059e-007 -4.39984e-007 0.4882 -2.341 -0.6462 0.0145441 0.00367465 -0.00325823 0.3574 -1.7166 -0.4742 -4.2789e-006 2.81943e-006 -7.71941e-006 1.4199 -1.8761 1.4221 2.47089e-006 -4.2059e-007 -4.39984e-007 1.1472 -3.4929 2.6336 -4.59474e-006 3.93323e-006 -6.02901e-006 0.8229 -2.3 1.6571 3.97569e-016 2.61156e-006 -0 -9.412 3.9771 -0.7758 -124.512 -52.5698 -131.505 -0.7531 -40.938 0 -128.968 70.9727 127.214 0 -40.1986 -1.42109e-014 -2.18477 23.1442 -5.67275 3.55271e-015 -4.4182 9.239 -5.91172e-006 -4.80396e-007 7.55003e-006 9.4119 3.9773 -0.7758 120.91 -51.551 127.367 0.7532 -40.9383 0 116.074 73.912 -115.046 3.55271e-015 -40.1986 0 2.62488 24.7622 3.39875 -7.10543e-015 -4.4182 9.239 8.36219e-007 -3.57111e-006 1.00398e-005 
0.0718855 76.5552 -29.9711 -8.39649e-009 -69.0033 -2.78506e-007 1.38778e-017 8.7983 -4.7612 -0.379513 16.1379 -0.0124153 5.55112e-017 8.0291 0.4195 -0.806616 32.2756 0.0982434 0 9.9351 -2.2114 -0.80661 32.2754 0.0982404 -4.44089e-016 22.3885 -0.4656 3.3763e-005 -8.96288 5.74966e-006 -0.0001 12.643 3.4389 -4.00862e-007 -8.14577 2.22152e-008 2.2603 21.606 7.4023 -9.52422 -0.00457426 -11.3301 13.5163 -1.1332 -5.0146 90.3227 11.0264 -37.3604 -0.0995 -28.05 -0.2431 -1.44695 -7.86981 -0.354735 0.0679 -23.3996 -0.1402 -5.87127 1.94652 -4.01607 0.7932 -9.069 2.5189 3.97569e-016 1.39149e-015 -9.54166e-015 -0.8272 -3.3923 0.5977 3.18056e-015 2.7372e-006 -1.59028e-014 -0.5649 -2.3158 0.4082 4.77083e-015 -3.97569e-016 6.36111e-015 0.9159 -9.2044 0.2193 3.97569e-016 1.39149e-015 -9.54166e-015 0.0117 -4.1944 -0.0248 -0.0128869 0.00232272 9.20192e-005 0.0071 -2.3249 -0.0142 -1.0138e-014 -4.77083e-015 6.36111e-015 0.6113 -8.7231 -2.0637 3.97569e-016 1.39149e-015 -9.54166e-015 -0.1927 -3.8059 -0.2383 -0.0160668 0.00299085 0.000847968 -0.1091 -2.1688 -0.1362 6.95746e-015 -1.59028e-015 6.36111e-015 -0.6151 -8.0947 -3.5641 3.97569e-016 1.39149e-015 -9.54166e-015 -0.4882 -2.341 -0.6462 -0.0125406 0.00309808 0.00282461 -0.3575 -1.7167 -0.4742 -7.95139e-016 6.36111e-015 -3.18055e-015 -1.42 -1.8761 1.4223 3.97569e-016 1.39149e-015 -9.54166e-015 -1.1471 -3.4929 2.6334 3.18056e-015 2.7372e-006 -1.59028e-014 -0.823 -2.3 1.6571 4.77083e-015 -3.97569e-016 6.36111e-015 -2.2603 21.606 7.4023 8.81826 0.174636 5.99023 -13.5187 -1.1334 -5.0155 -91.0292 5.97062 37.3182 0.0994 -28.0499 -0.2431 1.42037 -7.87377 0.246533 -0.0679 -23.3996 -0.1402 4.89491 1.87206 4.15976 -0.7932 -9.0691 2.5189 1.19271e-015 4.77083e-015 1.59028e-014 0.8272 -3.3923 0.5977 -3.24422e-030 8.34896e-015 2.22639e-014 0.565 -2.3158 0.4082 1.19271e-015 4.37326e-015 2.8625e-014 -0.916 -9.2044 0.2193 1.19271e-015 4.77083e-015 1.59028e-014 -0.0117 -4.1944 -0.0248 0.0129612 0.0023133 -8.6625e-005 -0.0071 -2.3249 -0.0142 -3.97569e-016 -3.97569e-015 -3.18055e-015 -0.6113 -8.7231 -2.0637 1.19271e-015 4.77083e-015 1.59028e-014 0.1927 -3.8059 -0.2383 0.0163001 0.00302171 -0.000869472 0.1091 -2.1688 -0.1362 2.47041e-006 -4.19322e-007 -4.38355e-007 0.6151 -8.0947 -3.564 1.19271e-015 4.77083e-015 1.59028e-014 0.4882 -2.341 -0.6462 0.0144328 0.00363955 -0.00322807 0.3574 -1.7166 -0.4742 7.35682e-006 -1.42316e-006 -4.13249e-006 1.4199 -1.8761 1.4221 1.19271e-015 4.77083e-015 1.59028e-014 1.1472 -3.4929 2.6336 -3.24422e-030 8.34896e-015 2.22639e-014 0.8229 -2.3 1.6571 1.19271e-015 4.37326e-015 2.8625e-014 -9.412 3.9771 -0.7758 -124.084 -52.3324 -131.033 -0.7531 -40.938 -3.55271e-015 -128.127 71.2238 126.433 -3.55271e-015 -40.1986 1.42109e-014 -2.29256 23.3708 -5.30007 0 -4.4182 9.239 3.18055e-015 3.18055e-015 -0 9.4119 3.9773 -0.7758 120.782 -51.3827 127.235 0.7532 -40.9383 -7.10543e-015 116.086 73.9104 -115.061 3.55271e-015 -40.1986 1.42109e-014 2.70686 24.8596 3.19568 0 -4.4182 9.239 -6.78348e-006 -4.33896e-006 7.51414e-006 
0.0660925 76.5536 -29.9696 -2.54948e-007 -69.0033 -1.98333e-007 0 8.7983 -4.7612 -0.378788 16.2046 -0.0139666 0 8.0291 0.4195 -0.805022 32.409 0.0953574 0 9.9351 -2.2114 -0.805017 32.4088 0.0953553 0 22.3885 -0.4656 3.4119e-005 -8.28189 6.0223e-006 -0.0001 12.643 3.4389 7.70849e-007 -7.52658 2.06449e-007 2.2603 21.606 7.4023 -9.39727 -0.0193587 -11.428 13.5163 -1.1332 -5.0146 90.3227 11.0265 -37.3604 -0.0995 -28.05 -0.2431 -1.44693 -7.86988 -0.354713 0.0679 -23.3996 -0.1402 -5.95737 1.89193 -3.69237 0.7932 -9.069 2.5189 1.47892e-006 2.03364e-006 1.59811e-006 -0.8272 -3.3923 0.5977 -1.31866e-005 -1.30084e-005 4.42888e-006 -0.5649 -2.3158 0.4082 -2.28239e-006 2.66427e-006 -1.38483e-006 0.9159 -9.2044 0.2193 1.47892e-006 2.03364e-006 1.59811e-006 0.0117 -4.1944 -0.0248 -0.0127905 0.00231617 7.50131e-005 0.0071 -2.3249 -0.0142 -7.95139e-016 -5.1684e-015 -0 0.6113 -8.7231 -2.0637 1.47892e-006 2.03364e-006 1.59811e-006 -0.1927 -3.8059 -0.2383 -0.016062 0.00300795 0.000860674 -0.1091 -2.1688 -0.1362 1.98785e-015 1.98785e-016 -3.18055e-015 -0.6151 -8.0947 -3.5641 1.47892e-006 2.03364e-006 1.59811e-006 -0.4882 -2.341 -0.6462 -0.0125485 0.00310569 0.00281971 -0.3575 -1.7167 -0.4742 9.93923e-016 -1.39149e-015 -1.27222e-014 -1.42 -1.8761 1.4223 1.47892e-006 2.03364e-006 1.59811e-006 -1.1471 -3.4929 2.6334 -1.31866e-005 -1.30084e-005 4.42888e-006 -0.823 -2.3 1.6571 -2.28239e-006 2.66427e-006 -1.38483e-006 -2.2603 21.606 7.4023 8.67772 0.158706 6.07742 -13.5187 -1.1334 -5.0155 -91.0292 5.97065 37.3181 0.0994 -28.0499 -0.2431 1.42038 -7.87381 0.246556 -0.0679 -23.3996 -0.1402 5.0614 1.82542 3.83831 -0.7932 -9.0691 2.5189 -3.97569e-016 1.19271e-015 -0 0.8272 -3.3923 0.5977 -7.95139e-016 3.97569e-015 -6.36111e-015 0.565 -2.3158 0.4082 1.98785e-015 3.97569e-015 -3.18055e-015 -0.916 -9.2044 0.2193 -3.97569e-016 1.19271e-015 -0 -0.0117 -4.1944 -0.0248 0.0129388 0.00231836 -7.84535e-005 -0.0071 -2.3249 -0.0142 2.38542e-015 -7.95139e-015 -0 -0.6113 -8.7231 -2.0637 -3.97569e-016 1.19271e-015 -0 0.1927 -3.8059 -0.2383 0.016278 0.0030309 -0.000875789 0.1091 -2.1688 -0.1362 -1.19271e-015 7.95139e-016 -3.18055e-015 0.6151 -8.0947 -3.564 -3.97569e-016 1.19271e-015 -0 0.4882 -2.341 -0.6462 0.0146168 0.00369007 -0.00328615 0.3574 -1.7166 -0.4742 -3.57812e-015 -7.95139e-016 -6.36111e-015 1.4199 -1.8761 1.4221 -3.97569e-016 1.19271e-015 -0 1.1472 -3.4929 2.6336 -7.95139e-016 3.97569e-015 -6.36111e-015 0.8229 -2.3 1.6571 1.98785e-015 3.97569e-015 -3.18055e-015 -9.412 3.9771 -0.7758 -123.661 -52.0933 -130.565 -0.7531 -40.938 7.10543e-015 -127.265 71.4712 125.63 0 -40.1986 -1.42109e-014 -2.40216 23.5965 -4.9262 3.55271e-015 -4.4182 9.239 3.18055e-015 0 4.77083e-015 9.4119 3.9773 -0.7758 120.654 -51.2141 127.105 0.7532 -40.9383 -7.10543e-015 116.097 73.9089 -115.075 -7.10543e-015 -40.1986 0 2.78933 24.9569 2.99222 3.55271e-015 -4.4182 9.239 -1.76556e-031 6.36111e-015 1.59028e-015 
